<svg width="209.000000" height="82.000000" viewBox="0 0 209 82" fill="none" xmlns="http://www.w3.org/2000/svg" xmlns:xlink="http://www.w3.org/1999/xlink">
	<desc>
			Created with Pixso.
	</desc>
	<defs>
		<clipPath id="clip998_981">
			<rect id="f_41164214e543b92c (1) 1" rx="0.000000" width="208.000000" height="81.000000" transform="translate(0.500000 0.500000)" fill="white" fill-opacity="0"/>
		</clipPath>
	</defs>
	<rect id="f_41164214e543b92c (1) 1" rx="0.000000" width="208.000000" height="81.000000" transform="translate(0.500000 0.500000)" fill="#FFFFFF" fill-opacity="0"/>
	<g clip-path="url(#clip998_981)">
		<path id="Vector" d="M88.23 59.25C88.44 59.51 88.54 59.84 88.54 60.23C88.54 60.78 88.34 61.21 87.93 61.52C87.52 61.83 86.93 61.98 86.15 61.98L83.51 61.98C83.32 61.98 83.16 61.82 83.16 61.63L83.16 56.01C83.16 55.82 83.32 55.66 83.51 55.66L85.98 55.66C86.69 55.66 87.24 55.8 87.64 56.08C88.04 56.37 88.24 56.77 88.24 57.29C88.24 57.62 88.16 57.9 88 58.14C87.84 58.38 87.61 58.57 87.31 58.69C87.71 58.8 88.02 58.99 88.23 59.25ZM84.32 58.36L85.88 58.36C86.26 58.36 86.55 58.29 86.75 58.13C86.95 57.98 87.05 57.76 87.05 57.47C87.05 57.17 86.95 56.95 86.75 56.79C86.55 56.64 86.26 56.56 85.88 56.56L84.32 56.56L84.32 58.36ZM87.36 60.14C87.36 59.53 86.95 59.22 86.12 59.22L84.32 59.22L84.32 61.08L86.12 61.08C86.95 61.08 87.36 60.77 87.36 60.14Z" fill="#A8A8A8" fill-opacity="1.000000" fill-rule="nonzero"/>
		<path id="Vector" d="M94.53 58.31C94.13 57.97 93.54 57.8 92.79 57.8L91.04 57.8L91.04 55.95C91.04 55.79 90.91 55.66 90.75 55.66L90.18 55.66C90.02 55.66 89.88 55.79 89.88 55.95L89.88 61.69C89.88 61.85 90.02 61.98 90.18 61.98L92.6 61.98C93.4 61.98 94.03 61.8 94.47 61.43C94.92 61.05 95.14 60.52 95.14 59.82C95.14 59.15 94.94 58.65 94.53 58.31ZM93.6 60.76C93.35 60.97 93 61.08 92.54 61.08L91.04 61.08L91.04 58.7L92.54 58.7C93.49 58.7 93.97 59.08 93.97 59.84C93.97 60.25 93.84 60.55 93.6 60.76Z" fill="#A8A8A8" fill-opacity="1.000000" fill-rule="nonzero"/>
		<path id="Vector" d="M97.2 55.95L97.2 61.69C97.2 61.85 97.07 61.98 96.91 61.98L96.34 61.98C96.18 61.98 96.05 61.85 96.05 61.69L96.05 55.95C96.05 55.79 96.18 55.66 96.34 55.66L96.91 55.66C97.07 55.66 97.2 55.79 97.2 55.95Z" fill="#A8A8A8" fill-opacity="1.000000" fill-rule="nonzero"/>
		<path id="Vector" d="M76.71 59.12L76.71 59.69C76.71 59.86 76.58 59.99 76.41 59.99L53.85 59.99C53.68 59.99 53.55 59.86 53.55 59.69L53.55 59.12C53.55 58.96 53.68 58.83 53.85 58.83L76.41 58.83C76.58 58.83 76.71 58.96 76.71 59.12Z" fill="#A8A8A8" fill-opacity="1.000000" fill-rule="nonzero"/>
		<path id="Vector" d="M190.71 59.12L190.71 59.69C190.71 59.86 190.58 59.99 190.42 59.99L167.85 59.99C167.69 59.99 167.56 59.86 167.56 59.69L167.56 59.12C167.56 58.96 167.69 58.83 167.85 58.83L190.42 58.83C190.58 58.83 190.71 58.96 190.71 59.12Z" fill="#A8A8A8" fill-opacity="1.000000" fill-rule="nonzero"/>
		<path id="Vector" d="M104.05 59.25C104.26 59.51 104.36 59.84 104.36 60.23C104.36 60.78 104.16 61.21 103.75 61.52C103.34 61.83 102.75 61.98 101.98 61.98L99.37 61.98C99.16 61.98 98.98 61.81 98.98 61.59L98.98 56.05C98.98 55.84 99.16 55.66 99.37 55.66L101.8 55.66C102.51 55.66 103.07 55.8 103.46 56.09C103.86 56.37 104.06 56.77 104.06 57.29C104.06 57.62 103.98 57.9 103.82 58.14C103.66 58.38 103.43 58.57 103.13 58.69C103.53 58.8 103.84 58.99 104.05 59.25ZM100.14 58.36L101.71 58.36C102.09 58.36 102.37 58.29 102.57 58.13C102.77 57.98 102.87 57.76 102.87 57.47C102.87 57.17 102.77 56.95 102.57 56.79C102.37 56.64 102.08 56.56 101.71 56.56L100.14 56.56L100.14 58.36ZM103.18 60.14C103.18 59.53 102.77 59.22 101.94 59.22L100.14 59.22L100.14 61.08L101.94 61.08C102.77 61.08 103.18 60.77 103.18 60.14Z" fill="#A8A8A8" fill-opacity="1.000000" fill-rule="nonzero"/>
		<path id="Vector" d="M106.88 61.65C106.36 61.37 105.96 60.98 105.66 60.49C105.37 59.99 105.22 59.44 105.22 58.82C105.22 58.21 105.37 57.65 105.66 57.16C105.96 56.66 106.36 56.27 106.88 55.99C107.39 55.71 107.97 55.57 108.62 55.57C109.26 55.57 109.84 55.71 110.36 55.99C110.87 56.27 111.28 56.66 111.57 57.15C111.87 57.64 112.01 58.2 112.01 58.82C112.01 59.44 111.87 60 111.57 60.49C111.28 60.99 110.87 61.37 110.36 61.65C109.84 61.93 109.26 62.07 108.62 62.07C107.97 62.07 107.39 61.93 106.88 61.65ZM109.75 60.76C110.09 60.57 110.35 60.3 110.55 59.96C110.74 59.62 110.83 59.24 110.83 58.82C110.83 58.4 110.74 58.02 110.55 57.68C110.35 57.34 110.09 57.07 109.75 56.88C109.42 56.69 109.04 56.6 108.62 56.6C108.2 56.6 107.82 56.69 107.48 56.88C107.14 57.07 106.88 57.34 106.69 57.68C106.5 58.02 106.4 58.4 106.4 58.82C106.4 59.24 106.5 59.62 106.69 59.96C106.88 60.3 107.14 60.57 107.48 60.76C107.82 60.95 108.2 61.04 108.62 61.04C109.04 61.04 109.42 60.95 109.75 60.76Z" fill="#A8A8A8" fill-opacity="1.000000" fill-rule="nonzero"/>
		<path id="Vector" d="M117.33 59.27C117.55 59.54 117.65 59.85 117.65 60.21C117.65 60.59 117.53 60.92 117.28 61.2C117.04 61.48 116.71 61.7 116.3 61.85C115.89 62 115.44 62.07 114.95 62.07C114.53 62.07 114.11 62.01 113.68 61.9C113.33 61.8 113 61.66 112.69 61.48C112.58 61.42 112.54 61.29 112.59 61.18L112.78 60.76C112.83 60.63 112.99 60.58 113.11 60.65C113.32 60.77 113.56 60.87 113.81 60.94C114.14 61.04 114.48 61.09 114.81 61.09C115.28 61.09 115.68 61 115.99 60.81C116.31 60.62 116.46 60.37 116.46 60.04C116.46 59.76 116.35 59.55 116.12 59.41C115.89 59.26 115.58 59.19 115.17 59.19L113.98 59.19C113.83 59.19 113.71 59.07 113.71 58.92L113.71 58.55C113.71 58.4 113.83 58.27 113.98 58.27L115.08 58.27C115.36 58.27 115.59 58.23 115.77 58.14C116.12 57.97 116.29 57.54 116.15 57.18C116.09 57.02 115.97 56.89 115.8 56.78C115.53 56.62 115.19 56.54 114.78 56.54C114.5 56.54 114.21 56.58 113.9 56.66C113.7 56.72 113.5 56.79 113.31 56.88C113.17 56.95 113.01 56.88 112.95 56.74L112.78 56.3C112.73 56.17 112.79 56.01 112.92 55.95C113.18 55.84 113.44 55.74 113.72 55.68C114.08 55.59 114.45 55.55 114.81 55.55C115.28 55.55 115.71 55.62 116.1 55.76C116.49 55.91 116.81 56.11 117.04 56.38C117.27 56.65 117.39 56.96 117.39 57.32C117.39 57.64 117.31 57.91 117.14 58.15C116.98 58.37 116.76 58.54 116.49 58.67C116.47 58.68 116.47 58.7 116.49 58.7C116.85 58.82 117.13 59.01 117.33 59.27Z" fill="#A8A8A8" fill-opacity="1.000000" fill-rule="nonzero"/>
		<path id="Vector" d="M127.26 61.7L127.25 57.79L125.26 61.12C125.21 61.21 125.12 61.26 125.02 61.26L124.81 61.26C124.72 61.26 124.62 61.21 124.57 61.12L122.58 57.85L122.58 61.7C122.58 61.85 122.45 61.98 122.3 61.98L121.76 61.98C121.6 61.98 121.47 61.85 121.47 61.7L121.47 55.95C121.47 55.79 121.6 55.66 121.76 55.66L122.28 55.66C122.38 55.66 122.47 55.71 122.52 55.8L124.93 59.84L127.32 55.8C127.37 55.71 127.46 55.66 127.56 55.66L128.07 55.66C128.23 55.66 128.36 55.79 128.36 55.95L128.37 61.69C128.37 61.85 128.25 61.98 128.09 61.98L127.54 61.98C127.39 61.98 127.26 61.85 127.26 61.7Z" fill="#A8A8A8" fill-opacity="1.000000" fill-rule="nonzero"/>
		<path id="Vector" d="M135.16 55.66C135.34 55.66 135.45 55.86 135.37 56.02L132.82 60.76C132.58 61.22 132.29 61.55 131.96 61.78C131.62 62 131.26 62.12 130.87 62.12C130.64 62.12 130.4 62.08 130.17 62.01C130.05 61.96 129.97 61.83 130.01 61.7L130.16 61.22C130.2 61.1 130.33 61.03 130.45 61.06C130.6 61.1 130.73 61.12 130.84 61.12C131.22 61.12 131.53 60.92 131.78 60.53L131.88 60.38L129.56 56.02C129.47 55.86 129.59 55.66 129.77 55.66L130.47 55.66C130.56 55.66 130.64 55.71 130.69 55.79L132.48 59.37L134.34 55.79C134.38 55.71 134.46 55.66 134.55 55.66L135.16 55.66Z" fill="#A8A8A8" fill-opacity="1.000000" fill-rule="nonzero"/>
		<path id="Vector" d="M137.48 61.65C136.97 61.37 136.57 60.99 136.27 60.49C135.98 60 135.84 59.44 135.84 58.82C135.84 58.2 135.98 57.64 136.28 57.15C136.57 56.66 136.98 56.27 137.49 55.99C138 55.71 138.58 55.57 139.22 55.57C139.73 55.57 140.2 55.66 140.63 55.84C140.94 55.97 141.22 56.15 141.46 56.37C141.6 56.5 141.6 56.73 141.46 56.87L141.19 57.12C141.06 57.24 140.87 57.24 140.73 57.13C140.32 56.78 139.83 56.6 139.27 56.6C138.84 56.6 138.45 56.7 138.11 56.89C137.76 57.08 137.5 57.34 137.31 57.68C137.11 58.01 137.02 58.4 137.02 58.82C137.02 59.25 137.11 59.63 137.31 59.97C137.5 60.31 137.76 60.57 138.11 60.76C138.45 60.95 138.84 61.04 139.27 61.04C139.83 61.04 140.32 60.87 140.73 60.51C140.86 60.4 141.06 60.4 141.19 60.52L141.46 60.78C141.6 60.91 141.6 61.15 141.46 61.28C141.22 61.5 140.94 61.67 140.63 61.8C140.2 61.98 139.72 62.07 139.21 62.07C138.57 62.07 138 61.93 137.48 61.65Z" fill="#A8A8A8" fill-opacity="1.000000" fill-rule="nonzero"/>
		<path id="Vector" d="M143.85 61.65C143.33 61.37 142.92 60.98 142.63 60.49C142.34 59.99 142.19 59.44 142.19 58.82C142.19 58.21 142.34 57.65 142.63 57.16C142.92 56.66 143.33 56.27 143.85 55.99C144.36 55.71 144.94 55.57 145.59 55.57C146.23 55.57 146.81 55.71 147.33 55.99C147.84 56.27 148.25 56.66 148.54 57.15C148.84 57.64 148.98 58.2 148.98 58.82C148.98 59.44 148.84 60 148.54 60.49C148.25 60.99 147.84 61.37 147.33 61.65C146.81 61.93 146.23 62.07 145.59 62.07C144.94 62.07 144.36 61.93 143.85 61.65ZM146.72 60.76C147.06 60.57 147.32 60.3 147.51 59.96C147.71 59.62 147.8 59.24 147.8 58.82C147.8 58.4 147.71 58.02 147.51 57.68C147.32 57.34 147.06 57.07 146.72 56.88C146.39 56.69 146.01 56.6 145.59 56.6C145.17 56.6 144.79 56.69 144.45 56.88C144.11 57.07 143.85 57.34 143.66 57.68C143.47 58.02 143.37 58.4 143.37 58.82C143.37 59.24 143.47 59.62 143.66 59.96C143.85 60.3 144.11 60.57 144.45 60.76C144.79 60.95 145.17 61.04 145.59 61.04C146.01 61.04 146.39 60.95 146.72 60.76Z" fill="#A8A8A8" fill-opacity="1.000000" fill-rule="nonzero"/>
		<path id="Vector" d="M154.3 55.93C154.71 56.11 155.02 56.37 155.24 56.71C155.45 57.05 155.56 57.45 155.56 57.91C155.56 58.37 155.45 58.77 155.24 59.11C155.02 59.45 154.71 59.71 154.3 59.89C153.9 60.07 153.42 60.16 152.88 60.16L151.45 60.16L151.45 61.66C151.45 61.84 151.31 61.98 151.13 61.98L150.6 61.98C150.42 61.98 150.28 61.84 150.28 61.66L150.28 55.98C150.28 55.8 150.42 55.66 150.6 55.66L152.88 55.66C153.42 55.66 153.9 55.75 154.3 55.93ZM153.98 58.84C154.25 58.62 154.38 58.31 154.38 57.91C154.38 57.51 154.25 57.2 153.98 56.98C153.72 56.76 153.33 56.65 152.82 56.65L151.45 56.65L151.45 59.17L152.82 59.17C153.33 59.16 153.72 59.06 153.98 58.84Z" fill="#A8A8A8" fill-opacity="1.000000" fill-rule="nonzero"/>
		<path id="Vector" d="M160.53 60.52L157.38 60.52L156.84 61.8C156.79 61.91 156.68 61.98 156.56 61.98L156.02 61.98C155.8 61.98 155.65 61.76 155.74 61.56L158.31 55.84C158.36 55.73 158.47 55.66 158.58 55.66L159.35 55.66C159.47 55.66 159.57 55.73 159.62 55.84L162.2 61.56C162.29 61.75 162.14 61.98 161.92 61.98L161.36 61.98C161.24 61.98 161.13 61.91 161.09 61.8L160.53 60.52ZM160.15 59.6L158.96 56.83L157.78 59.6L160.15 59.6Z" fill="#A8A8A8" fill-opacity="1.000000" fill-rule="nonzero"/>
		<path id="Vector" d="M172.98 46.45L166.67 32.43C166.48 32.01 166.06 31.74 165.6 31.74L163.68 31.74C163.22 31.74 162.8 32.01 162.61 32.43L156.32 46.45C156.15 46.82 156.18 47.24 156.4 47.57C156.62 47.91 156.99 48.11 157.39 48.11L158.8 48.11C159.28 48.11 159.7 47.83 159.88 47.39L161.1 44.55L168.15 44.55L169.38 47.4C169.56 47.83 169.99 48.11 170.45 48.11L171.92 48.11C172.32 48.11 172.69 47.91 172.9 47.57C173.12 47.24 173.15 46.82 172.98 46.45ZM162.47 41.33L164.62 36.31L166.78 41.33L162.47 41.33Z" fill="#1D1D1B" fill-opacity="1.000000" fill-rule="nonzero"/>
		<path id="Vector" d="M68.55 45.3C68.55 45.62 68.42 45.94 68.18 46.16C67.53 46.77 66.76 47.27 65.9 47.63C64.8 48.1 63.57 48.33 62.25 48.33C60.63 48.33 59.13 47.97 57.82 47.25C57.15 46.89 56.56 46.45 56.04 45.95C55.52 45.45 55.06 44.88 54.69 44.24C53.94 42.97 53.56 41.52 53.56 39.92C53.56 38.33 53.94 36.88 54.7 35.6C55.46 34.33 56.52 33.32 57.84 32.6C59.16 31.88 60.65 31.52 62.28 31.52C63.59 31.52 64.82 31.75 65.91 32.22C66.77 32.58 67.53 33.07 68.18 33.69C68.42 33.91 68.55 34.23 68.55 34.55C68.55 34.88 68.42 35.18 68.18 35.41L67.33 36.21C66.88 36.63 66.2 36.64 65.75 36.24C64.81 35.4 63.71 34.99 62.41 34.99C61.44 34.99 60.57 35.21 59.81 35.63C59.06 36.04 58.46 36.63 58.04 37.37C57.62 38.11 57.4 38.97 57.4 39.92C57.4 40.88 57.62 41.73 58.04 42.48C58.46 43.22 59.06 43.8 59.81 44.22C60.57 44.64 61.44 44.85 62.41 44.85C63.71 44.85 64.8 44.44 65.74 43.59C66.19 43.19 66.89 43.2 67.33 43.62L68.19 44.44C68.43 44.67 68.55 44.97 68.55 45.3Z" fill="#27AE60" fill-opacity="1.000000" fill-rule="nonzero"/>
		<path id="Vector" d="M84.34 32.91L84.34 46.93C84.34 47.58 83.81 48.11 83.16 48.11L81.73 48.11C81.09 48.11 80.56 47.58 80.56 46.93L80.56 35.13L73.55 35.13L73.55 46.94C73.55 47.58 73.03 48.11 72.38 48.11L70.95 48.11C70.3 48.11 69.78 47.58 69.78 46.94L69.78 32.91C69.78 32.26 70.3 31.74 70.95 31.74L83.16 31.74C83.81 31.74 84.34 32.26 84.34 32.91Z" fill="#27AE60" fill-opacity="1.000000" fill-rule="nonzero"/>
		<path id="Vector" d="M98.86 45.92L98.86 46.93C98.86 47.58 98.33 48.11 97.68 48.11L87.53 48.11C86.89 48.11 86.36 47.58 86.36 46.93L86.36 32.91C86.36 32.26 86.89 31.74 87.53 31.74L97.37 31.74C98.02 31.74 98.55 32.26 98.55 32.91L98.55 33.93C98.55 34.58 98.02 35.1 97.37 35.1L90.18 35.1L90.18 38.14L96.43 38.14C97.08 38.14 97.6 38.67 97.6 39.32L97.6 40.29C97.6 40.94 97.08 41.46 96.43 41.46L90.18 41.46L90.18 44.74L97.68 44.74C98.33 44.74 98.86 45.27 98.86 45.92Z" fill="#27AE60" fill-opacity="1.000000" fill-rule="nonzero"/>
		<path id="Vector" d="M116.68 45.9L116.68 50.32C116.68 50.97 116.15 51.5 115.5 51.5L114.25 51.5C113.6 51.5 113.07 50.97 113.07 50.32L113.07 48.11L101.2 48.11C100.56 48.11 100.03 47.58 100.03 46.93L100.03 32.91C100.03 32.26 100.56 31.74 101.2 31.74L102.63 31.74C103.28 31.74 103.81 32.26 103.81 32.91L103.81 44.72L110.59 44.72L110.59 32.91C110.59 32.26 111.12 31.74 111.77 31.74L113.22 31.74C113.87 31.74 114.39 32.26 114.39 32.91L114.39 44.72L115.5 44.72C116.15 44.72 116.68 45.25 116.68 45.9Z" fill="#27AE60" fill-opacity="1.000000" fill-rule="nonzero"/>
		<path id="Vector" d="M143.5 32.91L143.5 33.95C143.5 34.6 142.97 35.12 142.32 35.12L138.4 35.12L138.4 46.93C138.4 47.58 137.87 48.11 137.23 48.11L135.77 48.11C135.13 48.11 134.6 47.58 134.6 46.93L134.6 35.13L130.7 35.13C130.06 35.13 129.53 34.6 129.53 33.95L129.53 32.91C129.53 32.27 130.06 31.74 130.7 31.74L142.32 31.74C142.97 31.74 143.5 32.26 143.5 32.91Z" fill="#1D1D1B" fill-opacity="1.000000" fill-rule="nonzero"/>
		<path id="Vector" d="M127.76 38.02L120.21 38.02C119.57 38.02 119.04 38.55 119.04 39.2L119.04 40.65C119.04 41.3 119.57 41.83 120.21 41.83L127.76 41.83C128.27 41.83 128.69 41.41 128.69 40.9L128.69 38.94C128.69 38.43 128.27 38.02 127.76 38.02Z" fill="#1D1D1B" fill-opacity="1.000000" fill-rule="nonzero"/>
		<path id="Vector" d="M157.71 34.51C157.42 34.06 157.07 33.66 156.65 33.32C156.24 32.97 155.76 32.68 155.23 32.44C154.18 31.97 152.94 31.74 151.55 31.74L145.92 31.74C145.27 31.74 144.74 32.26 144.74 32.91L144.74 46.93C144.74 47.58 145.27 48.11 145.92 48.11L147.39 48.11C148.03 48.11 148.56 47.58 148.56 46.93L148.56 43.66L151.55 43.66C152.94 43.66 154.18 43.43 155.23 42.96C156.3 42.49 157.14 41.78 157.71 40.88C158.28 39.97 158.58 38.9 158.58 37.7C158.58 36.48 158.28 35.41 157.71 34.51ZM154.73 37.7C154.73 38.54 154.48 39.16 153.95 39.59C153.39 40.04 152.54 40.28 151.42 40.28L148.56 40.28L148.56 35.13L151.42 35.13C152.54 35.13 153.39 35.36 153.95 35.81C154.47 36.24 154.73 36.86 154.73 37.7Z" fill="#1D1D1B" fill-opacity="1.000000" fill-rule="nonzero"/>
		<path id="Vector" d="M188.69 32.91L188.69 46.93C188.69 47.58 188.16 48.11 187.52 48.11L186.04 48.11C185.39 48.11 184.87 47.58 184.87 46.93L184.87 41.51L177.88 41.51L177.88 46.93C177.88 47.58 177.36 48.11 176.71 48.11L175.24 48.11C174.59 48.11 174.06 47.58 174.06 46.93L174.06 32.91C174.06 32.26 174.59 31.74 175.24 31.74L176.71 31.74C177.36 31.74 177.88 32.26 177.88 32.91L177.88 38.1L184.87 38.1L184.87 32.91C184.87 32.26 185.39 31.74 186.04 31.74L187.52 31.74C188.16 31.74 188.69 32.26 188.69 32.91Z" fill="#1D1D1B" fill-opacity="1.000000" fill-rule="nonzero"/>
		<path id="Vector" d="M204.64 45.3C204.64 45.62 204.51 45.94 204.27 46.16C203.62 46.77 202.85 47.27 201.99 47.63C200.89 48.1 199.66 48.33 198.34 48.33C196.71 48.33 195.22 47.97 193.91 47.25C192.58 46.53 191.53 45.51 190.78 44.24C190.03 42.97 189.65 41.52 189.65 39.92C189.65 38.33 190.03 36.88 190.79 35.6C191.55 34.33 192.61 33.32 193.93 32.6C195.25 31.88 196.74 31.52 198.37 31.52C199.68 31.52 200.91 31.75 202 32.22C202.86 32.58 203.62 33.07 204.27 33.69C204.51 33.91 204.64 34.23 204.64 34.55C204.64 34.88 204.51 35.18 204.27 35.41L203.42 36.21C202.97 36.63 202.29 36.64 201.84 36.24C200.89 35.4 199.8 34.99 198.5 34.99C197.53 34.99 196.66 35.21 195.9 35.63C195.14 36.04 194.55 36.63 194.13 37.37C193.71 38.11 193.49 38.97 193.49 39.92C193.49 40.88 193.71 41.73 194.13 42.48C194.55 43.22 195.15 43.8 195.9 44.22C196.66 44.64 197.53 44.85 198.5 44.85C199.8 44.85 200.89 44.44 201.84 43.59C202.28 43.19 202.98 43.2 203.42 43.62L204.28 44.44C204.52 44.67 204.64 44.97 204.64 45.3Z" fill="#1D1D1B" fill-opacity="1.000000" fill-rule="nonzero"/>
		<path id="Vector" d="M39.63 28.84L36.59 30.08C35.85 30.39 35.7 31.36 36.31 31.89C42.27 37.08 44.48 45.17 41.77 52.65C38.8 60.85 30.84 65.79 22 64.96C13.49 64.16 6.34 57.15 5.37 48.67C4.35 39.53 9.42 31.22 17.75 28.46C17.8 28.44 17.88 28.43 17.97 28.43C18.26 28.43 18.68 28.53 19 28.6L19.25 28.66C19.74 28.78 20.25 28.94 20.78 29.12C21.88 29.49 22.99 29.86 24.21 29.84C25.84 29.81 27.58 29.55 29.43 29.09L29.52 29.06C30 28.94 30.48 28.81 30.97 28.65L31.51 28.49C32.08 28.31 32.65 28.14 33.22 27.96L34.1 27.7L43.6 24.89L42.71 24.1C39.45 21.21 36.15 19.01 32.61 17.41C29.6 16.03 27 15.42 24.39 15.5C20.37 15.65 17.2 17.56 14.7 21.31L14.58 21.48C18.35 20.45 26.88 19.09 36.81 23.73C36.81 23.73 21.73 20.89 13.59 24.58C13.21 24.75 12.84 24.95 12.48 25.16C12.28 25.26 12.1 25.37 11.91 25.5C3.74 30.41 -0.94 39.75 0.32 49.27C1.73 59.96 9.89 68.25 20.64 69.9C21.8 70.08 22.94 70.17 24.09 70.17C28.63 70.17 33.04 68.83 36.83 66.41C40.61 63.99 43.75 60.5 45.76 56.23C50.03 47.07 47.97 36.1 40.79 29.05C40.48 28.76 40.02 28.68 39.63 28.84Z" fill="#27AE60" fill-opacity="1.000000" fill-rule="nonzero"/>
		<path id="Vector" d="M31.25 55.98L31.16 57.61C31.16 57.61 31.14 57.61 31.13 57.6C30.65 57.25 23.03 51.77 18.77 48.17C18.73 48.14 18.68 48.09 18.64 48.06C17.54 47.12 16.45 46.16 15.5 45.05C13.2 42.42 12.66 38.92 14.01 35.94C23.52 38.67 27.09 47.9 27.32 48.52C25.38 39.65 18.1 34.04 15.39 32.23L16.52 32.16C19.1 32.01 22.82 32.14 25.45 34.97C27.21 36.88 28.63 39.06 29.53 41.28C31.51 46.09 31.52 51.19 31.25 55.98Z" fill="#27AE60" fill-opacity="1.000000" fill-rule="nonzero"/>
	</g>
</svg>
