<svg width="21.513672" height="21.357422" viewBox="0 0 21.5137 21.3574" fill="none" xmlns="http://www.w3.org/2000/svg" xmlns:xlink="http://www.w3.org/1999/xlink">
	<desc>
			Created with Pixso.
	</desc>
	<defs/>
	<path id="+" d="M9.22 21.28Q9.39 21.35 9.59 21.35L11.91 21.35Q12.21 21.35 12.44 21.22Q12.53 21.16 12.61 21.07Q12.74 20.93 12.81 20.77Q12.88 20.6 12.88 20.4L12.88 12.59L20.55 12.59Q20.76 12.59 20.94 12.51Q21.1 12.44 21.23 12.31Q21.32 12.21 21.39 12.1Q21.51 11.88 21.51 11.59L21.51 9.51Q21.51 9.19 21.37 8.98Q21.31 8.89 21.23 8.81Q21.11 8.71 20.98 8.64Q20.79 8.55 20.55 8.55L12.88 8.55L12.88 0.95Q12.88 0.71 12.78 0.52Q12.72 0.39 12.61 0.28Q12.53 0.19 12.44 0.13Q12.21 0 11.91 0L9.59 0Q9.39 0 9.22 0.07Q9.05 0.14 8.91 0.28Q8.78 0.41 8.71 0.56Q8.63 0.74 8.63 0.95L8.63 8.55L0.95 8.55Q0.73 8.55 0.54 8.63Q0.39 8.7 0.27 8.81Q0.2 8.88 0.15 8.95Q0 9.18 0 9.51L0 11.59Q0 11.89 0.13 12.12Q0.18 12.22 0.27 12.31Q0.41 12.45 0.58 12.52Q0.75 12.59 0.95 12.59L8.63 12.59L8.63 20.4Q8.63 20.57 8.69 20.73Q8.76 20.92 8.91 21.07Q9.05 21.21 9.22 21.28Z" fill="#27AE60" fill-opacity="1.000000" fill-rule="evenodd"/>
</svg>
