<svg width="26.666626" height="26.666626" viewBox="0 0 26.6666 26.6666" fill="none" xmlns="http://www.w3.org/2000/svg" xmlns:xlink="http://www.w3.org/1999/xlink">
	<desc>
			Created with Pixso.
	</desc>
	<defs/>
	<path id="Vector" d="M13.33 24C19.22 24 24 19.22 24 13.33C24 7.44 19.22 2.66 13.33 2.66C7.44 2.66 2.66 7.44 2.66 13.33C2.66 19.22 7.44 24 13.33 24ZM13.33 26.66C5.96 26.66 0 20.69 0 13.33C0 5.96 5.96 0 13.33 0C20.69 0 26.66 5.96 26.66 13.33C26.66 20.69 20.69 26.66 13.33 26.66ZM13.33 18.66C16.27 18.66 18.66 16.27 18.66 13.33C18.66 10.38 16.27 8 13.33 8C10.38 8 8 10.38 8 13.33C8 16.27 10.38 18.66 13.33 18.66ZM13.33 21.33C8.91 21.33 5.33 17.75 5.33 13.33C5.33 8.91 8.91 5.33 13.33 5.33C17.75 5.33 21.33 8.91 21.33 13.33C21.33 17.75 17.75 21.33 13.33 21.33ZM13.33 16C11.86 16 10.66 14.8 10.66 13.33C10.66 11.86 11.86 10.66 13.33 10.66C14.8 10.66 16 11.86 16 13.33C16 14.8 14.8 16 13.33 16Z" fill="#27AE60" fill-opacity="1.000000" fill-rule="nonzero"/>
</svg>
