<svg width="24.444458" height="23.333374" viewBox="0 0 24.4445 23.3334" fill="none" xmlns="http://www.w3.org/2000/svg" xmlns:xlink="http://www.w3.org/1999/xlink">
	<desc>
			Created with Pixso.
	</desc>
	<defs/>
	<path id="Vector" d="M18.88 6.66L24.44 6.66L24.44 8.88L18.88 8.88L18.88 6.66ZM16.66 12.22L24.44 12.22L24.44 14.44L16.66 14.44L16.66 12.22ZM20 17.77L24.44 17.77L24.44 20L20 20L20 17.77ZM0 23.33C0 20.97 0.93 18.71 2.6 17.04C4.27 15.38 6.53 14.44 8.88 14.44C11.24 14.44 13.5 15.38 15.17 17.04C16.84 18.71 17.77 20.97 17.77 23.33L15.55 23.33C15.55 21.56 14.85 19.86 13.6 18.61C12.35 17.36 10.65 16.66 8.88 16.66C7.12 16.66 5.42 17.36 4.17 18.61C2.92 19.86 2.22 21.56 2.22 23.33L0 23.33ZM8.88 13.33C5.2 13.33 2.22 10.35 2.22 6.66C2.22 2.98 5.2 0 8.88 0C12.57 0 15.55 2.98 15.55 6.66C15.55 10.35 12.57 13.33 8.88 13.33ZM8.88 11.11C11.34 11.11 13.33 9.12 13.33 6.66C13.33 4.21 11.34 2.22 8.88 2.22C6.43 2.22 4.44 4.21 4.44 6.66C4.44 9.12 6.43 11.11 8.88 11.11Z" fill="#27AE60" fill-opacity="1.000000" fill-rule="nonzero"/>
</svg>
