<svg width="27.341553" height="25.670654" viewBox="0 0 27.3416 25.6707" fill="none" xmlns="http://www.w3.org/2000/svg" xmlns:xlink="http://www.w3.org/1999/xlink">
	<desc>
			Created with Pixso.
	</desc>
	<defs/>
	<path id="Vector" d="M13.67 25.67C7.04 25.67 1.67 20.29 1.67 13.67C1.67 7.04 7.04 1.67 13.67 1.67C20.29 1.67 25.67 7.04 25.67 13.67C25.67 20.29 20.29 25.67 13.67 25.67ZM13.67 23C18.82 23 23 18.82 23 13.67C23 8.51 18.82 4.33 13.67 4.33C8.51 4.33 4.33 8.51 4.33 13.67C4.33 18.82 8.51 23 13.67 23ZM15 13.67L19 13.67L19 16.33L12.33 16.33L12.33 7L15 7L15 13.67ZM0 4.71L4.71 0L6.59 1.88L1.88 6.59L0 4.71ZM22.62 0L27.34 4.71L25.45 6.59L20.74 1.88L22.62 0Z" fill="#27AE60" fill-opacity="1.000000" fill-rule="nonzero"/>
</svg>
