<svg width="29.998291" height="29.832764" viewBox="0 0 29.9983 29.8328" fill="none" xmlns="http://www.w3.org/2000/svg" xmlns:xlink="http://www.w3.org/1999/xlink">
	<desc>
			Created with Pixso.
	</desc>
	<defs/>
	<path id="Layer 2" d="M3.13 29.82C2.94 29.82 2.76 29.78 2.59 29.7C2.42 29.62 2.27 29.5 2.14 29.36C2.02 29.21 1.94 29.04 1.89 28.86C1.84 28.68 1.83 28.49 1.86 28.3L2.32 25.64L0.38 23.76C0.21 23.59 0.09 23.38 0.03 23.14C-0.03 22.91 -0.02 22.66 0.06 22.43C0.13 22.21 0.27 22 0.45 21.85C0.64 21.69 0.86 21.59 1.1 21.55L3.77 21.16L4.99 18.75C5.1 18.54 5.27 18.36 5.47 18.23C5.68 18.11 5.91 18.04 6.15 18.04C6.39 18.04 6.63 18.11 6.83 18.23C7.04 18.36 7.2 18.54 7.31 18.75L8.5 21.17L11.17 21.56C11.41 21.6 11.63 21.7 11.82 21.86C12 22.01 12.14 22.22 12.21 22.44C12.29 22.67 12.3 22.92 12.24 23.15C12.18 23.39 12.06 23.6 11.89 23.77L9.96 25.65L10.42 28.31C10.46 28.55 10.43 28.79 10.34 29.02C10.25 29.24 10.1 29.44 9.9 29.58C9.71 29.72 9.48 29.81 9.24 29.82C9 29.84 8.76 29.79 8.54 29.68L6.12 28.41L3.74 29.67C3.55 29.77 3.34 29.82 3.13 29.82ZM6.12 26.32C6.33 26.32 6.54 26.37 6.72 26.47L8.17 27.23L7.89 25.61C7.85 25.4 7.87 25.19 7.93 24.99C8 24.79 8.11 24.61 8.26 24.46L9.43 23.32L7.81 23.08C7.6 23.06 7.4 22.98 7.22 22.85C7.05 22.73 6.91 22.56 6.81 22.37L6.09 20.9L5.36 22.37C5.27 22.56 5.13 22.73 4.95 22.85C4.78 22.98 4.57 23.06 4.36 23.08L2.74 23.32L3.99 24.47C4.14 24.62 4.25 24.8 4.32 25C4.38 25.2 4.4 25.41 4.36 25.62L4.08 27.23L5.53 26.47C5.71 26.38 5.92 26.32 6.12 26.32ZM24.77 21.26C24.52 21.26 24.27 21.2 24.05 21.08L18.9 18.37L13.75 21.08C13.49 21.22 13.19 21.28 12.89 21.25C12.59 21.23 12.31 21.12 12.07 20.94C11.84 20.77 11.66 20.53 11.55 20.25C11.44 19.98 11.42 19.68 11.47 19.39L12.47 13.68L11.7 12.93C11.51 12.74 11.41 12.49 11.41 12.23C11.41 11.96 11.51 11.71 11.7 11.52C11.89 11.34 12.14 11.23 12.41 11.23C12.67 11.23 12.92 11.34 13.11 11.52L14.05 12.43C14.24 12.61 14.38 12.84 14.45 13.09C14.53 13.34 14.54 13.61 14.49 13.86L13.63 18.93L18.22 16.51C18.45 16.39 18.7 16.33 18.96 16.33C19.22 16.33 19.47 16.39 19.7 16.51L24.29 18.93L23.41 13.81C23.37 13.56 23.39 13.29 23.47 13.05C23.55 12.8 23.69 12.58 23.88 12.4L27.56 8.8L22.39 8C22.13 7.96 21.89 7.86 21.68 7.71C21.47 7.56 21.3 7.36 21.19 7.12L18.9 2.52L16.61 7.17C16.49 7.39 16.32 7.58 16.12 7.72C15.91 7.87 15.68 7.96 15.43 8L10.28 8.74L10.62 9.08C10.81 9.27 10.91 9.52 10.91 9.79C10.91 10.05 10.81 10.3 10.62 10.49C10.53 10.59 10.42 10.66 10.3 10.71C10.17 10.76 10.04 10.79 9.91 10.79C9.78 10.79 9.65 10.76 9.53 10.71C9.4 10.66 9.29 10.59 9.2 10.49L8.27 9.57C8.07 9.37 7.93 9.12 7.87 8.84C7.8 8.56 7.81 8.27 7.89 8C7.98 7.72 8.15 7.48 8.37 7.29C8.59 7.1 8.86 6.98 9.15 6.93L14.91 6.1L17.49 0.87C17.62 0.61 17.82 0.39 18.07 0.23C18.32 0.08 18.61 0 18.91 0C19.2 0 19.49 0.08 19.74 0.23C19.99 0.39 20.19 0.61 20.32 0.87L22.89 6.09L28.63 6.93C28.92 6.97 29.2 7.09 29.43 7.28C29.65 7.47 29.82 7.72 29.91 8C30.01 8.29 30.02 8.59 29.95 8.88C29.88 9.17 29.73 9.43 29.51 9.64L25.36 13.7L26.36 19.42C26.4 19.65 26.39 19.89 26.33 20.11C26.27 20.33 26.16 20.54 26.01 20.72C25.86 20.89 25.67 21.04 25.46 21.13C25.25 21.23 25.02 21.28 24.79 21.28L24.77 21.26Z" fill="#27AE60" fill-opacity="1.000000" fill-rule="nonzero"/>
</svg>
