<svg width="32.000000" height="32.000000" viewBox="0 0 32 32" fill="none" xmlns="http://www.w3.org/2000/svg" xmlns:xlink="http://www.w3.org/1999/xlink">
	<desc>
			Created with Pixso.
	</desc>
	<defs>
		<clipPath id="clip998_870">
			<rect id="Frame" rx="0.000000" width="31.000000" height="31.000000" transform="translate(0.500000 0.500000)" fill="white" fill-opacity="0"/>
		</clipPath>
	</defs>
	<rect id="Frame" rx="0.000000" width="31.000000" height="31.000000" transform="translate(0.500000 0.500000)" fill="#FFFFFF" fill-opacity="0"/>
	<g clip-path="url(#clip998_870)">
		<path id="Vector" d="M16 2.66C23.36 2.66 29.33 8.63 29.33 16C29.33 23.36 23.36 29.33 16 29.33C8.63 29.33 2.66 23.36 2.66 16L5.33 16C5.33 21.89 10.1 26.66 16 26.66C21.89 26.66 26.66 21.89 26.66 16C26.66 10.1 21.89 5.33 16 5.33C12.71 5.33 9.77 6.81 7.82 9.15L10.66 12L2.66 12L2.66 4L5.92 7.26C8.37 4.44 11.97 2.66 16 2.66ZM17.33 9.33L17.33 15.44L21.65 19.77L19.77 21.65L14.66 16.55L14.66 9.33L17.33 9.33Z" fill="#27AE60" fill-opacity="1.000000" fill-rule="nonzero"/>
	</g>
</svg>
