<svg width="23.040039" height="23.040039" viewBox="0 0 23.04 23.04" fill="none" xmlns="http://www.w3.org/2000/svg" xmlns:xlink="http://www.w3.org/1999/xlink">
	<desc>
			Created with Pixso.
	</desc>
	<defs/>
	<path id="Vector" d="M11.52 0C5.15 0 0 5.15 0 11.52C0 17.88 5.15 23.04 11.52 23.04C17.88 23.04 23.04 17.88 23.04 11.52C23.04 5.15 17.88 0 11.52 0ZM15.95 12.99C15.95 12.99 16.96 14 17.21 14.46C17.22 14.47 17.23 14.48 17.23 14.49C17.33 14.66 17.35 14.79 17.3 14.89C17.22 15.06 16.93 15.14 16.83 15.15L15.03 15.15C14.91 15.15 14.65 15.12 14.33 14.9C14.09 14.73 13.85 14.45 13.61 14.17C13.26 13.77 12.96 13.42 12.66 13.42C12.62 13.42 12.58 13.42 12.54 13.44C12.31 13.51 12.02 13.84 12.02 14.72C12.02 14.99 11.8 15.15 11.65 15.15L10.82 15.15C10.54 15.15 9.08 15.05 7.78 13.68C6.2 12.01 4.77 8.65 4.76 8.62C4.67 8.4 4.85 8.28 5.06 8.28L6.87 8.28C7.12 8.28 7.2 8.43 7.25 8.56C7.32 8.72 7.55 9.32 7.94 10C8.58 11.11 8.96 11.57 9.27 11.57C9.33 11.56 9.39 11.55 9.44 11.52C9.85 11.3 9.77 9.85 9.75 9.55C9.75 9.49 9.75 8.9 9.54 8.62C9.4 8.42 9.14 8.34 8.99 8.31C9.05 8.22 9.13 8.15 9.23 8.11C9.51 7.97 10.01 7.95 10.51 7.95L10.78 7.95C11.32 7.95 11.46 7.99 11.66 8.04C12.05 8.13 12.06 8.39 12.03 9.26C12.02 9.51 12.01 9.79 12.01 10.12C12.01 10.2 12 10.27 12 10.35C11.99 10.8 11.98 11.3 12.29 11.51C12.33 11.54 12.38 11.55 12.43 11.55C12.54 11.55 12.87 11.55 13.76 10.02C14.03 9.53 14.27 9.02 14.47 8.49C14.49 8.46 14.54 8.37 14.6 8.33C14.65 8.31 14.7 8.29 14.75 8.3L16.89 8.3C17.12 8.3 17.28 8.33 17.31 8.42C17.36 8.56 17.3 9 16.33 10.32L15.89 10.89C15.01 12.05 15.01 12.11 15.95 12.99Z" fill="#FFFFFF" fill-opacity="1.000000" fill-rule="nonzero"/>
</svg>
