<svg width="24.000000" height="24.000000" viewBox="0 0 24 24" fill="none" xmlns="http://www.w3.org/2000/svg" xmlns:xlink="http://www.w3.org/1999/xlink">
	<desc>
			Created with Pixso.
	</desc>
	<defs>
		<clipPath id="clip998_1054">
			<rect rx="0.000000" width="23.000000" height="23.000000" transform="translate(0.500000 0.500000)" fill="white" fill-opacity="0"/>
		</clipPath>
	</defs>
	<rect rx="0.000000" width="23.000000" height="23.000000" transform="translate(0.500000 0.500000)" fill="#F1F1F7" fill-opacity="0"/>
	<g clip-path="url(#clip998_1054)">
		<path d="M2 22L3.35 17.03C2.46 15.5 1.99 13.76 2 12C2 6.47 6.47 2 12 2C17.52 2 22 6.47 22 12C22 17.52 17.52 22 12 22C10.23 22 8.49 21.53 6.96 20.64L2 22ZM8.39 7.3C8.26 7.31 8.13 7.35 8.02 7.4C7.91 7.46 7.81 7.54 7.72 7.63C7.6 7.74 7.53 7.84 7.46 7.94C7.09 8.42 6.89 9.01 6.89 9.62C6.9 10.1 7.03 10.58 7.22 11.03C7.63 11.93 8.31 12.89 9.2 13.77C9.41 13.98 9.62 14.2 9.84 14.4C10.95 15.37 12.26 16.07 13.68 16.44L14.25 16.53C14.44 16.54 14.62 16.52 14.81 16.52C15.1 16.5 15.38 16.42 15.64 16.29C15.81 16.2 15.89 16.15 16.03 16.06C16.03 16.06 16.07 16.04 16.15 15.98C16.29 15.87 16.37 15.8 16.48 15.69C16.56 15.6 16.63 15.5 16.69 15.39C16.77 15.22 16.85 14.91 16.88 14.65C16.9 14.45 16.89 14.35 16.89 14.28C16.89 14.17 16.8 14.06 16.7 14.01L16.12 13.75C16.12 13.75 15.25 13.37 14.72 13.13C14.66 13.11 14.6 13.09 14.54 13.09C14.47 13.08 14.4 13.09 14.34 13.11C14.27 13.14 14.21 13.17 14.16 13.22L14.16 13.22C14.16 13.22 14.09 13.27 13.37 14.15C13.33 14.21 13.27 14.25 13.2 14.27C13.14 14.29 13.07 14.3 13 14.28C12.94 14.26 12.87 14.24 12.81 14.21C12.69 14.16 12.64 14.14 12.56 14.1L12.55 14.1C11.98 13.85 11.45 13.52 10.98 13.1C10.86 12.99 10.74 12.87 10.62 12.76C10.23 12.38 9.88 11.95 9.6 11.49L9.54 11.39C9.5 11.33 9.46 11.26 9.44 11.19C9.4 11.04 9.5 10.92 9.5 10.92C9.5 10.92 9.74 10.66 9.86 10.51C9.95 10.39 10.04 10.27 10.12 10.14C10.24 9.95 10.27 9.75 10.21 9.6C9.93 8.92 9.64 8.24 9.34 7.56C9.29 7.43 9.11 7.33 8.95 7.31C8.9 7.31 8.84 7.3 8.79 7.3C8.65 7.29 8.52 7.29 8.39 7.3L8.39 7.3Z" fill="#FFFFFF" fill-opacity="1.000000" fill-rule="nonzero"/>
	</g>
</svg>
